<svg xmlns="http://www.w3.org/2000/svg" version="1.1" xmlns:xlink="http://www.w3.org/1999/xlink" xmlns:svgjs="http://svgjs.dev/svgjs" width="2000" height="348" viewBox="0 0 2000 348"><g transform="matrix(1,0,0,1,-1.2121212121213603,-0.6716543159782873)"><svg viewBox="0 0 396 69" data-background-color="#ffffff" preserveAspectRatio="xMidYMid meet" height="348" width="2000" xmlns="http://www.w3.org/2000/svg" xmlns:xlink="http://www.w3.org/1999/xlink"><g id="tight-bounds" transform="matrix(1,0,0,1,0.24000000000003752,0.13317283851293382)"><svg viewBox="0 0 395.5199999999999 68.73341013220335" height="68.73341013220335" width="395.5199999999999"><g><svg viewBox="0 0 506.5413643860724 88.0266872655587" height="68.73341013220335" width="395.5199999999999"><g transform="matrix(1,0,0,1,111.02136438607243,19.66241732036966)"><svg viewBox="0 0 395.52 48.70185262481939" height="48.70185262481939" width="395.52"><g id="textblocktransform"><svg viewBox="0 0 395.52 48.70185262481939" height="48.70185262481939" width="395.52" id="textblock"><g><svg viewBox="0 0 395.52 48.70185262481939" height="48.70185262481939" width="395.52"><g transform="matrix(1,0,0,1,0,0)"><svg width="395.52" viewBox="0.85 -37.5 315.62 38.35" height="48.70185262481939" data-palette-color="#000000"><g class="wordmark-text-0" data-fill-palette-color="primary" id="text-0"><path d="M5.1-25.4L5.1-25.4Q5.1-24.05 5.33-23.05 5.55-22.05 5.85-21.38 6.15-20.7 6.43-20.3 6.7-19.9 6.85-19.65L6.85-19.65Q4.05-19.65 2.45-21.08 0.85-22.5 0.85-25.45L0.85-25.45Q0.85-27.95 2.13-30.15 3.4-32.35 5.58-33.98 7.75-35.6 10.68-36.55 13.6-37.5 16.9-37.5L16.9-37.5Q19.85-37.5 22.03-36.77 24.2-36.05 25.63-34.8 27.05-33.55 27.75-31.95 28.45-30.35 28.45-28.65L28.45-28.65Q28.45-26.75 27.45-24.88 26.45-23 24.55-21.7L24.55-21.7Q28.4-21.3 30.73-18.65 33.05-16 33.05-11.25L33.05-11.25Q33.05-9.65 32.7-7.58 32.35-5.5 31.43-3.63 30.5-1.75 28.85-0.45 27.2 0.85 24.65 0.85L24.65 0.85Q23.55 0.85 22.55 0.58 21.55 0.3 20.78-0.23 20-0.75 19.55-1.58 19.1-2.4 19.1-3.45L19.1-3.45Q19.1-3.75 19.15-4.28 19.2-4.8 19.3-5.15L19.3-5.15Q20-4.05 21.05-3.63 22.1-3.2 23-3.2L23-3.2Q24.25-3.2 25.08-3.9 25.9-4.6 26.35-5.7 26.8-6.8 26.98-8.13 27.15-9.45 27.15-10.75L27.15-10.75Q27.15-15.5 25.33-17.6 23.5-19.7 20.25-19.7L20.25-19.7Q19.65-19.7 18.75-19.65 17.85-19.6 17-19.5L17-19.5 17 0 11.6 0 11.6-32.05 17-32.8 17-21.5 17.7-21.5Q19.1-21.5 20.33-22.18 21.55-22.85 22.45-23.95 23.35-25.05 23.85-26.38 24.35-27.7 24.35-29L24.35-29Q24.35-31.95 22.35-33.83 20.35-35.7 16.4-35.7L16.4-35.7Q14.25-35.7 12.2-35.08 10.15-34.45 8.58-33.18 7-31.9 6.05-29.95 5.1-28 5.1-25.4ZM35.8-34.3L40.8-35 40.8-21.2Q41.55-22.55 42.32-23.38 43.1-24.2 43.9-24.6 44.7-25 45.42-25.13 46.15-25.25 46.8-25.25L46.8-25.25Q49.05-25.25 50.42-24.4 51.8-23.55 52.5-22.23 53.2-20.9 53.42-19.33 53.65-17.75 53.65-16.3L53.65-16.3Q53.65-15.4 53.6-14.33 53.55-13.25 53.5-12.13 53.45-11 53.4-9.88 53.35-8.75 53.35-7.8L53.35-7.8Q53.35-7.4 53.4-6.68 53.45-5.95 53.65-5.25 53.85-4.55 54.3-4.03 54.75-3.5 55.6-3.5L55.6-3.5Q56.75-3.5 57.67-4.8 58.6-6.1 59.2-8.95L59.2-8.95 61.05-8.95Q60.5-5.8 59.65-3.98 58.8-2.15 57.85-1.2 56.9-0.25 55.95 0.03 55 0.3 54.2 0.3L54.2 0.3Q52.6 0.3 51.5-0.33 50.4-0.95 49.7-2 49-3.05 48.67-4.45 48.35-5.85 48.35-7.35L48.35-7.35Q48.35-7.8 48.37-9.03 48.4-10.25 48.42-11.65 48.45-13.05 48.47-14.3 48.5-15.55 48.5-16.05L48.5-16.05Q48.5-17.65 48.25-18.7 48-19.75 47.55-20.35 47.1-20.95 46.52-21.2 45.95-21.45 45.3-21.45L45.3-21.45Q43.75-21.45 42.62-20.2 41.5-18.95 40.8-16L40.8-16 40.8 0 35.8 0 35.8-34.3ZM72.59-25L77.59-25 77.59-8Q77.59-7.5 77.65-6.75 77.7-6 77.92-5.28 78.15-4.55 78.59-4.03 79.05-3.5 79.84-3.5L79.84-3.5Q82.3-3.5 83.45-8.95L83.45-8.95 85.3-8.95Q84.75-5.8 83.9-3.98 83.05-2.15 82.09-1.2 81.15-0.25 80.15 0.03 79.15 0.3 78.34 0.3L78.34 0.3Q77.2 0.3 76.37-0.1 75.55-0.5 74.97-1.15 74.4-1.8 74.05-2.65 73.7-3.5 73.5-4.45L73.5-4.45Q72.75-2.5 71.07-1.1 69.4 0.3 67 0.3L67 0.3Q65.5 0.3 63.97-0.3 62.45-0.9 61.22-2.27 60-3.65 59.22-5.83 58.45-8 58.45-11.15L58.45-11.15Q58.45-13.45 58.97-15.95 59.5-18.45 60.65-20.5 61.8-22.55 63.6-23.9 65.4-25.25 67.95-25.25L67.95-25.25Q68.55-25.25 69.22-25.13 69.9-25 70.52-24.7 71.15-24.4 71.7-23.88 72.25-23.35 72.59-22.6L72.59-22.6 72.59-25ZM68.25-3.5L68.25-3.5Q69-3.5 69.77-3.93 70.55-4.35 71.17-5.08 71.8-5.8 72.2-6.8 72.59-7.8 72.59-8.95L72.59-8.95 72.59-20.35Q72.25-21.15 71.52-21.83 70.8-22.5 69.65-22.5L69.65-22.5Q68.05-22.5 66.9-21.43 65.75-20.35 65.05-18.73 64.34-17.1 64.02-15.18 63.7-13.25 63.7-11.5L63.7-11.5Q63.7-7.2 64.87-5.35 66.05-3.5 68.25-3.5ZM83.39-25L88.39-25 88.39-20.8Q88.99-21.7 89.57-22.5 90.14-23.3 90.84-23.9 91.54-24.5 92.39-24.88 93.24-25.25 94.29-25.25L94.29-25.25Q95.99-25.25 96.79-24.38 97.59-23.5 97.59-22.25L97.59-22.25Q97.59-21.5 97.34-21 97.09-20.5 96.74-20.2 96.39-19.9 95.99-19.78 95.59-19.65 95.29-19.65L95.29-19.65Q94.84-19.65 94.57-19.85 94.29-20.05 94.02-20.28 93.74-20.5 93.39-20.7 93.04-20.9 92.49-20.9L92.49-20.9Q91.34-20.9 90.29-20.1 89.24-19.3 88.39-18.4L88.39-18.4 88.39 0 83.39 0 83.39-25ZM100.19-8.95L100.24-34.3 105.24-35 105.24-23.15Q106.09-24 107.24-24.55 108.39-25.1 109.99-25.1L109.99-25.1Q111.34-25.1 112.79-24.63 114.24-24.15 115.49-22.95 116.74-21.75 117.54-19.65 118.34-17.55 118.34-14.3L118.34-14.3Q118.34-11.45 117.67-8.8 116.99-6.15 115.62-4.13 114.24-2.1 112.19-0.9 110.14 0.3 107.39 0.3L107.39 0.3Q105.84 0.3 104.52-0.18 103.19-0.65 102.24-1.73 101.29-2.8 100.74-4.58 100.19-6.35 100.19-8.95L100.19-8.95ZM113.89-13.15L113.89-13.15Q113.89-15.1 113.54-16.8 113.19-18.5 112.52-19.78 111.84-21.05 110.87-21.78 109.89-22.5 108.64-22.5L108.64-22.5Q107.64-22.5 106.79-22.03 105.94-21.55 105.24-20.8L105.24-20.8 105.24-7.65Q105.24-3.15 108.19-3.15L108.19-3.15Q109.59-3.15 110.67-3.98 111.74-4.8 112.47-6.2 113.19-7.6 113.54-9.4 113.89-11.2 113.89-13.15ZM134.54-25L139.54-25 139.54-8Q139.54-7.5 139.59-6.75 139.64-6 139.86-5.28 140.09-4.55 140.54-4.03 140.99-3.5 141.79-3.5L141.79-3.5Q144.24-3.5 145.39-8.95L145.39-8.95 147.24-8.95Q146.69-5.8 145.84-3.98 144.99-2.15 144.04-1.2 143.09-0.25 142.09 0.03 141.09 0.3 140.29 0.3L140.29 0.3Q139.14 0.3 138.31-0.1 137.49-0.5 136.91-1.15 136.34-1.8 135.99-2.65 135.64-3.5 135.44-4.45L135.44-4.45Q134.69-2.5 133.01-1.1 131.34 0.3 128.94 0.3L128.94 0.3Q127.44 0.3 125.91-0.3 124.39-0.9 123.16-2.27 121.94-3.65 121.16-5.83 120.39-8 120.39-11.15L120.39-11.15Q120.39-13.45 120.91-15.95 121.44-18.45 122.59-20.5 123.74-22.55 125.54-23.9 127.34-25.25 129.89-25.25L129.89-25.25Q130.49-25.25 131.16-25.13 131.84-25 132.46-24.7 133.09-24.4 133.64-23.88 134.19-23.35 134.54-22.6L134.54-22.6 134.54-25ZM130.19-3.5L130.19-3.5Q130.94-3.5 131.71-3.93 132.49-4.35 133.11-5.08 133.74-5.8 134.14-6.8 134.54-7.8 134.54-8.95L134.54-8.95 134.54-20.35Q134.19-21.15 133.46-21.83 132.74-22.5 131.59-22.5L131.59-22.5Q129.99-22.5 128.84-21.43 127.69-20.35 126.99-18.73 126.29-17.1 125.96-15.18 125.64-13.25 125.64-11.5L125.64-11.5Q125.64-7.2 126.81-5.35 127.99-3.5 130.19-3.5ZM145.34-25L150.34-25 150.34-20.8Q150.94-21.7 151.51-22.5 152.09-23.3 152.79-23.9 153.49-24.5 154.34-24.88 155.19-25.25 156.24-25.25L156.24-25.25Q157.94-25.25 158.74-24.38 159.54-23.5 159.54-22.25L159.54-22.25Q159.54-21.5 159.29-21 159.04-20.5 158.69-20.2 158.34-19.9 157.94-19.78 157.54-19.65 157.24-19.65L157.24-19.65Q156.79-19.65 156.51-19.85 156.24-20.05 155.96-20.28 155.69-20.5 155.34-20.7 154.99-20.9 154.44-20.9L154.44-20.9Q153.29-20.9 152.24-20.1 151.19-19.3 150.34-18.4L150.34-18.4 150.34 0 145.34 0 145.34-25ZM175.58-25L180.58-25 180.58-8Q180.58-7.5 180.63-6.75 180.68-6 180.91-5.28 181.13-4.55 181.58-4.03 182.03-3.5 182.83-3.5L182.83-3.5Q185.28-3.5 186.43-8.95L186.43-8.95 188.28-8.95Q187.73-5.8 186.88-3.98 186.03-2.15 185.08-1.2 184.13-0.25 183.13 0.03 182.13 0.3 181.33 0.3L181.33 0.3Q180.18 0.3 179.36-0.1 178.53-0.5 177.96-1.15 177.38-1.8 177.03-2.65 176.68-3.5 176.48-4.45L176.48-4.45Q175.73-2.5 174.06-1.1 172.38 0.3 169.98 0.3L169.98 0.3Q168.48 0.3 166.96-0.3 165.43-0.9 164.21-2.27 162.98-3.65 162.21-5.83 161.43-8 161.43-11.15L161.43-11.15Q161.43-13.45 161.96-15.95 162.48-18.45 163.63-20.5 164.78-22.55 166.58-23.9 168.38-25.25 170.93-25.25L170.93-25.25Q171.53-25.25 172.21-25.13 172.88-25 173.51-24.7 174.13-24.4 174.68-23.88 175.23-23.35 175.58-22.6L175.58-22.6 175.58-25ZM171.23-3.5L171.23-3.5Q171.98-3.5 172.76-3.93 173.53-4.35 174.16-5.08 174.78-5.8 175.18-6.8 175.58-7.8 175.58-8.95L175.58-8.95 175.58-20.35Q175.23-21.15 174.51-21.83 173.78-22.5 172.63-22.5L172.63-22.5Q171.03-22.5 169.88-21.43 168.73-20.35 168.03-18.73 167.33-17.1 167.01-15.18 166.68-13.25 166.68-11.5L166.68-11.5Q166.68-7.2 167.86-5.35 169.03-3.5 171.23-3.5Z" fill="#000000" data-fill-palette-color="primary"></path><path d="M221.03-30.6L221.03-30.6Q221.03-28.6 220.2-27.5 219.38-26.4 218.03-26.4L218.03-26.4Q217.33-26.4 216.85-26.65 216.38-26.9 215.88-27.45L215.88-27.45Q216.58-27.95 216.95-28.9 217.33-29.85 217.33-30.9L217.33-30.9Q217.33-31.75 217.05-32.6 216.78-33.45 216.18-34.13 215.58-34.8 214.68-35.23 213.78-35.65 212.53-35.65L212.53-35.65Q211.23-35.65 210.2-35.18 209.18-34.7 208.5-33.88 207.83-33.05 207.48-31.95 207.13-30.85 207.13-29.6L207.13-29.6Q207.13-27.2 208.3-25.75 209.48-24.3 211.23-23.3 212.98-22.3 215.05-21.4 217.13-20.5 218.88-19.18 220.63-17.85 221.8-15.83 222.98-13.8 222.98-10.45L222.98-10.45Q222.98-7.45 221.98-5.33 220.98-3.2 219.35-1.9 217.73-0.6 215.63 0 213.53 0.6 211.33 0.6L211.33 0.6Q209.38 0.6 207.48 0.15 205.58-0.3 204.08-1.28 202.58-2.25 201.65-3.78 200.73-5.3 200.73-7.45L200.73-7.45Q200.73-8.7 201.08-10 201.43-11.3 202.1-12.35 202.78-13.4 203.8-14.08 204.83-14.75 206.18-14.75L206.18-14.75Q207.28-14.75 208.05-14.15 208.83-13.55 209.43-11.9L209.43-11.9Q208.23-11.85 207.45-11.4 206.68-10.95 206.23-10.3 205.78-9.65 205.6-8.9 205.43-8.15 205.43-7.5L205.43-7.5Q205.43-6.15 206.03-5.15 206.63-4.15 207.55-3.48 208.48-2.8 209.55-2.48 210.63-2.15 211.63-2.15L211.63-2.15Q213.93-2.15 215.43-3.9 216.93-5.65 216.93-8.95L216.93-8.95Q216.93-11.75 215.85-13.38 214.78-15 213.13-16.1 211.48-17.2 209.6-18 207.73-18.8 206.08-19.9 204.43-21 203.35-22.73 202.28-24.45 202.28-27.35L202.28-27.35Q202.28-29.85 203.13-31.75 203.98-33.65 205.35-34.93 206.73-36.2 208.55-36.83 210.38-37.45 212.33-37.45L212.33-37.45Q213.18-37.45 214.65-37.25 216.13-37.05 217.55-36.35 218.98-35.65 220-34.27 221.03-32.9 221.03-30.6ZM235.13-25.25L235.13-25.25Q237.08-25.25 238.48-24.65 239.87-24.05 240.78-22.98 241.68-21.9 242.2-20.45 242.73-19 242.98-17.35L242.98-17.35 243.28-17.35Q245.38-17.35 247.13-18.2 248.88-19.05 250.13-20.35L250.13-20.35 250.88-19Q249.88-17.4 247.7-16.35 245.53-15.3 243.23-14.9L243.23-14.9Q243.23-14.4 243.25-13.9 243.28-13.4 243.28-12.85L243.28-12.85Q243.28-6.7 241.03-3.2 238.78 0.3 234.73 0.3L234.73 0.3Q233.08 0.3 231.4-0.3 229.73-0.9 228.38-2.3 227.03-3.7 226.2-5.9 225.38-8.1 225.38-11.35L225.38-11.35Q225.38-13.55 225.85-16 226.33-18.45 227.45-20.5 228.58-22.55 230.45-23.9 232.33-25.25 235.13-25.25ZM235.63-3.5L235.63-3.5Q238.28-3.5 239.53-6.13 240.78-8.75 240.78-13.55L240.78-13.55Q240.78-13.85 240.78-14.15 240.78-14.45 240.73-14.75L240.73-14.75Q239.28-14.85 238.65-15.4 238.03-15.95 238.03-17.25L238.03-17.25Q238.03-18.4 238.53-18.88 239.03-19.35 240.03-19.4L240.03-19.4Q239.43-21.15 238.5-21.83 237.58-22.5 236.43-22.5L236.43-22.5Q234.88-22.5 233.8-21.48 232.73-20.45 232.05-18.85 231.38-17.25 231.08-15.33 230.78-13.4 230.78-11.55L230.78-11.55Q230.78-9.1 231.23-7.55 231.68-6 232.38-5.1 233.08-4.2 233.93-3.85 234.78-3.5 235.63-3.5ZM258.82-25L263.82-25 263.82-8Q263.82-7.5 263.87-6.75 263.92-6 264.15-5.28 264.37-4.55 264.82-4.03 265.27-3.5 266.07-3.5L266.07-3.5Q268.52-3.5 269.67-8.95L269.67-8.95 271.52-8.95Q270.97-5.8 270.12-3.98 269.27-2.15 268.32-1.2 267.37-0.25 266.37 0.03 265.37 0.3 264.57 0.3L264.57 0.3Q263.42 0.3 262.6-0.1 261.77-0.5 261.2-1.15 260.62-1.8 260.27-2.65 259.92-3.5 259.72-4.4L259.72-4.4Q258.77-1.95 257.22-0.83 255.67 0.3 253.97 0.3L253.97 0.3Q252.52 0.3 251.22-0.1 249.92-0.5 248.97-1.43 248.02-2.35 247.47-3.83 246.92-5.3 246.92-7.45L246.92-7.45 246.92-25 251.92-25 251.92-8Q251.92-5.55 252.77-4.53 253.62-3.5 254.92-3.5L254.92-3.5Q255.62-3.5 256.32-3.88 257.02-4.25 257.57-4.95 258.12-5.65 258.47-6.65 258.82-7.65 258.82-8.95L258.82-8.95 258.82-25ZM285.72-4.25L285.72-4.25Q285.32-4.35 285.07-4.75 284.82-5.15 284.82-5.55L284.82-5.55Q284.82-6.35 285.45-6.78 286.07-7.2 286.87-7.2L286.87-7.2Q287.97-7.2 288.87-6.45 289.77-5.7 289.77-4.25L289.77-4.25Q289.77-3.5 289.37-2.75 288.97-2 288.22-1.4 287.47-0.8 286.42-0.4 285.37 0 284.07 0L284.07 0 270.97 0 281.77-22.3 277.47-22.3Q276.37-22.3 275.5-22.18 274.62-22.05 274.62-21.6L274.62-21.6Q274.62-21.1 275.05-20.8 275.47-20.5 275.47-20L275.47-20Q275.47-19.45 274.85-18.95 274.22-18.45 273.22-18.45L273.22-18.45Q271.82-18.45 271.1-19.53 270.37-20.6 270.37-22.05L270.37-22.05Q270.37-23.35 271.5-24.18 272.62-25 275.52-25L275.52-25 287.92-25 277.22-3.5Q277.52-3.5 278.4-3.45 279.27-3.4 280.27-3.35 281.27-3.3 282.22-3.25 283.17-3.2 283.67-3.2L283.67-3.2Q284.57-3.2 285.1-3.5 285.62-3.8 285.72-4.25ZM303.77-25L308.77-25 308.77-8Q308.77-7.5 308.82-6.75 308.87-6 309.09-5.28 309.32-4.55 309.77-4.03 310.22-3.5 311.02-3.5L311.02-3.5Q313.47-3.5 314.62-8.95L314.62-8.95 316.47-8.95Q315.92-5.8 315.07-3.98 314.22-2.15 313.27-1.2 312.32-0.25 311.32 0.03 310.32 0.3 309.52 0.3L309.52 0.3Q308.37 0.3 307.54-0.1 306.72-0.5 306.14-1.15 305.57-1.8 305.22-2.65 304.87-3.5 304.67-4.45L304.67-4.45Q303.92-2.5 302.24-1.1 300.57 0.3 298.17 0.3L298.17 0.3Q296.67 0.3 295.14-0.3 293.62-0.9 292.39-2.27 291.17-3.65 290.39-5.83 289.62-8 289.62-11.15L289.62-11.15Q289.62-13.45 290.14-15.95 290.67-18.45 291.82-20.5 292.97-22.55 294.77-23.9 296.57-25.25 299.12-25.25L299.12-25.25Q299.72-25.25 300.39-25.13 301.07-25 301.69-24.7 302.32-24.4 302.87-23.88 303.42-23.35 303.77-22.6L303.77-22.6 303.77-25ZM299.42-3.5L299.42-3.5Q300.17-3.5 300.94-3.93 301.72-4.35 302.34-5.08 302.97-5.8 303.37-6.8 303.77-7.8 303.77-8.95L303.77-8.95 303.77-20.35Q303.42-21.15 302.69-21.83 301.97-22.5 300.82-22.5L300.82-22.5Q299.22-22.5 298.07-21.43 296.92-20.35 296.22-18.73 295.52-17.1 295.19-15.18 294.87-13.25 294.87-11.5L294.87-11.5Q294.87-7.2 296.04-5.35 297.22-3.5 299.42-3.5Z" fill="#61777f" data-fill-palette-color="secondary"></path></g></svg></g></svg></g></svg></g></svg></g><g><svg viewBox="0 0 88.0266872655587 88.0266872655587" height="88.0266872655587" width="88.0266872655587"><g><svg></svg></g><g id="icon-0"><svg viewBox="0 0 88.0266872655587 88.0266872655587" height="88.0266872655587" width="88.0266872655587"><g><path d="M0 44.013c0-24.308 19.705-44.013 44.013-44.013 24.308 0 44.013 19.705 44.014 44.013 0 24.308-19.705 44.013-44.014 44.014-24.308 0-44.013-19.705-44.013-44.014zM44.013 83.635c21.882 0 39.621-17.739 39.622-39.622 0-21.882-17.739-39.621-39.622-39.621-21.882 0-39.621 17.739-39.621 39.621 0 21.882 17.739 39.621 39.621 39.622z" data-fill-palette-color="accent" fill="#aaaaaa" stroke="transparent"></path></g><g transform="matrix(1,0,0,1,19.377703833895744,29.971028947415697)"><svg viewBox="0 0 49.27127959776722 28.084629370727313" height="28.084629370727313" width="49.27127959776722"><g><svg xmlns="http://www.w3.org/2000/svg" xmlns:xlink="http://www.w3.org/1999/xlink" version="1.1" x="0" y="0" viewBox="5 24.400000000000006 90 51.3" enable-background="new 0 0 100 100" xml:space="preserve" height="28.084629370727313" width="49.27127959776722" class="icon-z$-0" data-fill-palette-color="accent" id="z$-0"><path d="M30.3 42.8c1.4-1.4 2.2-3.3 2.2-5.3s-0.8-3.9-2.2-5.3C28.9 30.8 27 30 25 30s-3.9 0.8-5.3 2.2L7.2 44.7C5.8 46.1 5 48 5 50s0.8 3.9 2.2 5.3l12.5 12.5C21.1 69.2 23 70 25 70s3.9-0.8 5.3-2.2c1.4-1.4 2.2-3.3 2.2-5.3s-0.8-3.9-2.2-5.3L25 51.9 23.1 50l1.9-1.9L30.3 42.8zM17.8 51.8l9 9c0.5 0.5 0.7 1.1 0.7 1.8s-0.3 1.3-0.7 1.8c-0.9 0.9-2.6 0.9-3.5 0L10.7 51.8C10.3 51.3 10 50.7 10 50s0.3-1.3 0.7-1.8l12.5-12.5c0.5-0.5 1.1-0.7 1.8-0.7s1.3 0.3 1.8 0.7c0.5 0.5 0.7 1.1 0.7 1.8s-0.3 1.3-0.7 1.8l-9 9C16.8 49.2 16.8 50.8 17.8 51.8z" fill="#aaaaaa" data-fill-palette-color="accent"></path><path d="M80.3 32.2C78.9 30.8 77 30 75 30s-3.9 0.8-5.3 2.2c-1.4 1.4-2.2 3.3-2.2 5.3s0.8 3.9 2.2 5.3l5.3 5.3 1.9 1.9L75 51.9l-5.3 5.3c-1.4 1.4-2.2 3.3-2.2 5.3s0.8 3.9 2.2 5.3C71.1 69.2 73 70 75 70s3.9-0.8 5.3-2.2l12.5-12.5C94.2 53.9 95 52 95 50s-0.8-3.9-2.2-5.3L80.3 32.2zM89.3 51.8L76.8 64.3c-0.9 0.9-2.6 0.9-3.5 0-0.5-0.5-0.7-1.1-0.7-1.8s0.3-1.3 0.7-1.8l9-9c1-1 1-2.6 0-3.5l-9-9c-0.5-0.5-0.7-1.1-0.7-1.8s0.3-1.3 0.7-1.8c0.5-0.5 1.1-0.7 1.8-0.7s1.3 0.3 1.8 0.7l12.5 12.5c0.5 0.5 0.7 1.1 0.7 1.8S89.7 51.3 89.3 51.8z" fill="#aaaaaa" data-fill-palette-color="accent"></path><path d="M43.2 75.4c0.6 0.2 1.3 0.3 1.9 0.3 3.4 0 6.4-2.3 7.2-5.6l9.7-36.2c0.5-1.9 0.3-4-0.7-5.7-1-1.7-2.6-3-4.6-3.5-0.6-0.2-1.3-0.3-1.9-0.3-3.4 0-6.4 2.3-7.2 5.6l-9.7 36.2c-0.5 1.9-0.3 4 0.7 5.7C39.7 73.6 41.3 74.8 43.2 75.4zM42.7 67.5l9.7-36.2c0.3-1.1 1.3-1.9 2.4-1.9 0.2 0 0.4 0 0.6 0.1 0.6 0.2 1.2 0.6 1.5 1.2 0.3 0.6 0.4 1.3 0.2 1.9l-9.7 36.2c-0.3 1.3-1.7 2.1-3.1 1.8-0.6-0.2-1.2-0.6-1.5-1.2C42.6 68.8 42.6 68.1 42.7 67.5z" fill="#aaaaaa" data-fill-palette-color="accent"></path></svg></g></svg></g></svg></g></svg></g></svg></g><defs></defs></svg><rect width="395.5199999999999" height="68.73341013220335" fill="none" stroke="none" visibility="hidden"></rect></g></svg></g></svg>